<?xml version="1.0" encoding="utf-8"?>
<!-- Generator: Adobe Illustrator 21.0.2, SVG Export Plug-In . SVG Version: 6.00 Build 0)  -->
<svg version="1.1" id="Layer_1" xmlns="http://www.w3.org/2000/svg" xmlns:xlink="http://www.w3.org/1999/xlink" x="0px" y="0px"
	 viewBox="0 0 699.4 139" style="enable-background:new 0 0 699.4 139;" xml:space="preserve">
<style type="text/css">
	.st0{fill:#FFFFFF;}
	.st1{fill:none;}
	.st2{display:none;}
	.st3{display:inline;}
	.st4{fill:none;stroke:#000000;stroke-width:2;stroke-linecap:round;stroke-linejoin:round;stroke-miterlimit:10;}
</style>
<path class="st0" d="M69.5,139C31.2,139,0,107.8,0,69.5S31.2,0,69.5,0c18.6,0,36,7.2,49.2,20.4l-4.2,4.2c-12-12-28-18.6-44.9-18.6
	C34.6,6,6.1,34.5,6.1,69.5S34.6,133,69.6,133c17,0,32.9-6.6,44.9-18.6l4.2,4.2C105.5,131.8,88.1,139,69.5,139z"/>
<line class="st1" x1="146.9" y1="31" x2="212.1" y2="31"/>
<rect x="146.9" y="28" class="st0" width="65.3" height="6"/>
<rect x="176.6" y="31" class="st0" width="6" height="77.7"/>
<line class="st1" x1="584.2" y1="31" x2="649.4" y2="31"/>
<rect x="584.2" y="28" class="st0" width="65.3" height="6"/>
<rect x="613.9" y="31" class="st0" width="6" height="77.7"/>
<rect x="379.8" y="31" class="st0" width="6" height="77.7"/>
<rect x="130" y="31" class="st0" width="6" height="77.7"/>
<rect x="494" y="31" class="st0" width="6" height="77.7"/>
<rect x="567.2" y="31" class="st0" width="6" height="77.7"/>
<path class="st0" d="M259,108.7h-6V74.8c0-0.7,0.2-1.3,0.7-1.9L288.8,29l4.7,3.7l-34.4,43v33H259z"/>
<polygon class="st0" points="381.2,137.4 316.5,137.4 316.5,5.2 322.5,5.2 322.5,131.4 381.2,131.4 "/>
<rect x="235.5" y="24.8" transform="matrix(0.781 -0.6245 0.6245 0.781 19.2011 160.5367)" class="st0" width="6" height="56.2"/>
<rect x="497" y="64.8" class="st0" width="73.2" height="6"/>
<path class="st0" d="M444.3,112.3c-23.5,0-42.6-19.1-42.6-42.6s19.1-42.6,42.6-42.6c11.8,0,22.8,4.7,30.9,13.2l-4.3,4.1
	c-7-7.3-16.4-11.4-26.5-11.4c-20.2,0-36.6,16.4-36.6,36.6s16.4,36.6,36.6,36.6c9.7,0,18.8-3.7,25.7-10.5V70.3h6v26.4
	c0.1,0.8-0.2,1.6-0.8,2.3C467.1,107.6,456.1,112.3,444.3,112.3z"/>
<path class="st0" d="M675.5,112.4c-8.3,0-15.9-4.1-20.2-10.9l5.1-3.2c3.3,5.1,8.9,8.1,15.2,8.1c9.8,0,17.8-7.5,17.8-16.8
	c0-5.9-3.2-11.2-8.4-14.3l3-5.2c7.1,4.2,11.4,11.5,11.4,19.5C699.3,102.2,688.6,112.4,675.5,112.4z"/>
<path class="st0" d="M684.9,75.3L665,63.9c-0.1-0.1-0.2-0.1-0.4-0.2l-1.5-1.1l-0.1-0.1c-4.1-3.5-6.6-6.9-7.4-13.5
	c-0.6-5.2,1.1-10.2,4.7-14.3c4.2-4.7,10.4-7.5,16.8-7.5c7,0,13.6,3.4,17.6,9.2l-4.9,3.4c-2.9-4.2-7.6-6.6-12.7-6.6
	c-4.6,0-9.2,2-12.3,5.5c-2.5,2.8-3.6,6.2-3.2,9.7c0.5,4.3,1.7,6.5,5.3,9.6l1.2,1l19.7,11.3L684.9,75.3z"/>
<g id="Layer_1_1_" class="st2">
	<g class="st3">
		<g>
			<path class="st4" d="M92.1,8.8c-3.4-2.9-6.6-6-10.4-8.3c-8-5-16.5-8.6-26-10C31-13.1,10.6-5.2-5.8,13.3c-8,9.1-12.9,20-14.7,31.9
				c-2,13-0.6,25.8,5,37.9c7.7,16.6,19.9,28.2,37,34.9c10.7,4.2,21.7,5.2,32.9,3.8c11.8-1.5,22.4-6.3,31.8-13.6
				c1.7-1.3,3.2-3,4.9-4.4c0.6-0.5,1.2-1.7,2.4-0.9"/>
			<path class="st4" d="M295.1-8.6c0,42,0,84.1,0,126.1c0,3.1,0,3.1,3.1,3.1c19.5,0,39.1,0,58.6,0"/>
			<path class="st4" d="M668.8,23.8c-2.1-0.6-3.2-2.6-4.8-3.8c-9.5-7.1-23.4-3.5-28.3,6.7c-3.2,6.7-1.3,15.1,5,19.9
				c4.3,3.2,9,5.5,13.7,7.9c4,2,7.9,4.4,11.3,7.5c8.5,7.9,9.2,24.3-4.2,31.1c-10.6,5.4-22,2.1-28-6.8"/>
			<path class="st4" d="M448.1,27.8c-5.1-4.8-10.8-8.4-17.6-10.1c-5.6-1.4-11.2-1.8-17-0.8c-11.6,2-20.5,8-26.9,17.7
				c-3.7,5.6-5.8,11.8-6.2,18.5c-0.9,15.2,5.2,27.2,17.5,35.9c5.9,4.2,12.7,6.2,20,6.5c11.4,0.6,21.1-3.1,29.6-10.6
				c1.1-1,1.3-2,1.3-3.3c-0.1-8.3-0.1-16.6-0.1-24.9"/>
			<path class="st4" d="M108.6,17c0,26,0,52,0,78"/>
			<path class="st4" d="M155.1,17.9c0,25,0,50,0,75c0,0.7,0.1,1.5,0.1,2.2"/>
			<path class="st4" d="M592.5,17.9c0,25.6,0,51.3,0,76.9"/>
			<path class="st4" d="M358.4,17.7c0,25.6,0,51.1,0,76.7"/>
			<path class="st4" d="M545.3,54c-24.1,0-48.2,0-72.3,0"/>
			<path class="st4" d="M268,16.6c-0.7,0.5-1.6,0.6-2.3,1.5c-10.5,13.6-21,27.2-31.7,40.6c-1.8,2.3-2.4,4.5-2.4,7.3
				c0.1,9.7,0.1,19.4,0.1,29.1"/>
			<path class="st4" d="M195.3,16.6c2.2,0.3,2.8,2.3,3.9,3.8c10,12.8,20,25.7,30,38.5c0.7,0.8,1.2,2,2.4,2.2"/>
			<path class="st4" d="M472.5,17c0,8.7,0.1,17.3,0.1,26c0,16.6,0,33.2,0,49.8c0,0.7-0.1,1.5-0.1,2.2"/>
			<path class="st4" d="M545.9,17c0,8.7-0.1,17.3-0.1,26c0,16.6,0,33.2,0,49.8c0,0.7,0.1,1.5,0.1,2.2"/>
			<path class="st4" d="M625.1,17.2c-21.8,0-43.5,0-65.3,0"/>
			<path class="st4" d="M187.8,17.2c-21.8,0-43.5,0-65.3,0"/>
		</g>
	</g>
</g>
</svg>
