<?xml version="1.0" encoding="utf-8"?>
<!-- Generator: Adobe Illustrator 16.2.0, SVG Export Plug-In . SVG Version: 6.00 Build 0)  -->
<!DOCTYPE svg PUBLIC "-//W3C//DTD SVG 1.1//EN" "http://www.w3.org/Graphics/SVG/1.1/DTD/svg11.dtd">
<svg version="1.1" id="Layer_2" xmlns="http://www.w3.org/2000/svg" xmlns:xlink="http://www.w3.org/1999/xlink" x="0px" y="0px"
	 width="60px" height="60px" viewBox="-1.146 -1.147 60 60" enable-background="new -1.146 -1.147 60 60" xml:space="preserve">
<path id="Facebook__x28_alt_x29_" fill="#FFFFFF" d="M58.854,8.854c0-5.255-4.744-10-10-10h-40c-5.256,0-10,4.745-10,10v39.999
	c0,5.255,4.744,10.001,10.002,10.001h19.998V36.185H21.52v-9.999h7.334v-3.896c0-6.719,5.046-12.771,11.249-12.771h8.081v9.999
	h-8.081c-0.886,0-1.917,1.074-1.917,2.683v3.984h9.998v9.999h-9.997v22.668h10.667c5.256,0,10-4.746,10-10.001V8.854z"/>
</svg>
