<?xml version="1.0" encoding="utf-8"?>
<!-- Generator: Adobe Illustrator 21.0.2, SVG Export Plug-In . SVG Version: 6.00 Build 0)  -->
<svg version="1.1" id="Layer_1" xmlns="http://www.w3.org/2000/svg" xmlns:xlink="http://www.w3.org/1999/xlink" x="0px" y="0px"
	 viewBox="0 0 30 25" style="enable-background:new 0 0 30 25;" xml:space="preserve">
<style type="text/css">
	.st0{fill:#FFFFFF;stroke:#FFFFFF;stroke-miterlimit:10;}
	.st1{fill:none;stroke:#FFFFFF;stroke-miterlimit:10;}
</style>
<path class="st0" d="M19.6,3.4h-9.2c-0.4,0-0.6-0.5-0.6-1l0,0c0-0.6,0.3-1,0.6-1h9.2c0.4,0,0.6,0.5,0.6,1l0,0
	C20.2,3,20,3.4,19.6,3.4z"/>
<path class="st1" d="M0.5,5v16.1c0,1.4,1.1,2.5,2.5,2.5h24c1.4,0,2.5-1.1,2.5-2.5V5c0-1.4-1.1-2.5-2.5-2.5H3C1.6,2.4,0.5,3.6,0.5,5z
	 M5.2,9.4c-0.9,0-1.7-0.8-1.7-1.7C3.5,6.8,4.3,6,5.2,6s1.7,0.8,1.7,1.7C6.8,8.6,6.1,9.4,5.2,9.4z M15,19.1c-3.3,0-6-2.7-6-6
	s2.7-6,6-6s6,2.7,6,6S18.3,19.1,15,19.1z"/>
<circle class="st0" cx="15" cy="13" r="4.2"/>
</svg>
