<?xml version="1.0" encoding="utf-8"?>
<!-- Generator: Adobe Illustrator 16.2.0, SVG Export Plug-In . SVG Version: 6.00 Build 0)  -->
<!DOCTYPE svg PUBLIC "-//W3C//DTD SVG 1.1//EN" "http://www.w3.org/Graphics/SVG/1.1/DTD/svg11.dtd">
<svg version="1.1" id="Capa_1" xmlns="http://www.w3.org/2000/svg" xmlns:xlink="http://www.w3.org/1999/xlink" x="0px" y="0px"
	 width="44.236px" height="44.236px" viewBox="0 0 44.236 44.236" enable-background="new 0 0 44.236 44.236" xml:space="preserve">
<path fill="#FFFFFF" d="M22.118,44.236C9.922,44.236,0,34.314,0,22.118S9.922,0,22.118,0s22.118,9.922,22.118,22.118
	S34.314,44.236,22.118,44.236z M22.118,1.5C10.75,1.5,1.5,10.749,1.5,22.118c0,11.368,9.25,20.618,20.618,20.618
	c11.37,0,20.618-9.25,20.618-20.618C42.736,10.749,33.488,1.5,22.118,1.5z"/>
<polyline fill="none" stroke="#FFFFFF" stroke-width="1.414" stroke-miterlimit="10" points="8.118,32.118 22.118,18.118 
	36.118,32.118 "/>
<line fill="none" stroke="#FFFFFF" stroke-width="1.414" stroke-miterlimit="10" x1="8.118" y1="17.493" x2="36.118" y2="17.493"/>
</svg>
