<?xml version="1.0" encoding="utf-8"?>
<!-- Generator: Adobe Illustrator 16.2.0, SVG Export Plug-In . SVG Version: 6.00 Build 0)  -->
<!DOCTYPE svg PUBLIC "-//W3C//DTD SVG 1.1//EN" "http://www.w3.org/Graphics/SVG/1.1/DTD/svg11.dtd">
<svg version="1.1" id="Layer_2" xmlns="http://www.w3.org/2000/svg" xmlns:xlink="http://www.w3.org/1999/xlink" x="0px" y="0px"
	 width="82.037px" height="56.516px" viewBox="-1.146 2.337 82.037 56.516" enable-background="new -1.146 2.337 82.037 56.516"
	 xml:space="preserve">
<g id="Twitter__x28_alt_x29_">
	<path fill="#FFFFFF" d="M71.596,27.463c4.607-0.381,7.732-2.475,8.935-5.317c-1.662,1.021-6.821,2.135-9.671,1.074
		c-0.139-0.669-0.296-1.306-0.448-1.879C68.24,13.369,60.807,6.946,53.019,7.722c0.629-0.255,1.269-0.491,1.905-0.704
		c0.856-0.308,5.888-1.127,5.096-2.901c-0.669-1.562-6.813,1.181-7.971,1.538c1.527-0.574,4.055-1.563,4.324-3.317
		c-2.341,0.321-4.637,1.427-6.412,3.036c0.64-0.689,1.127-1.531,1.23-2.436c-6.243,3.988-9.889,12.027-12.839,19.826
		c-2.318-2.246-4.37-4.014-6.212-4.996c-5.169-2.771-11.348-5.663-21.049-9.265c-0.297,3.21,1.587,7.478,7.019,10.315
		c-1.176-0.158-3.328,0.193-5.05,0.605c0.701,3.678,2.989,6.706,9.188,8.171c-2.832,0.187-4.296,0.831-5.623,2.22
		c1.291,2.558,4.438,5.567,10.101,4.949c-6.296,2.714-2.567,7.739,2.555,6.989c-8.737,9.024-22.515,8.362-30.427,0.813
		C19.51,70.714,64.41,59.213,71.101,32.101c5.014,0.044,7.962-1.735,9.79-3.697C78.001,28.894,73.815,28.387,71.596,27.463z"/>
</g>
</svg>
