<?xml version="1.0" encoding="utf-8"?>
<!-- Generator: Adobe Illustrator 21.0.2, SVG Export Plug-In . SVG Version: 6.00 Build 0)  -->
<svg version="1.1" id="Layer_1" xmlns="http://www.w3.org/2000/svg" xmlns:xlink="http://www.w3.org/1999/xlink" x="0px" y="0px"
	 viewBox="0 0 1417.3 1700.8" style="enable-background:new 0 0 1417.3 1700.8;" xml:space="preserve">
<style type="text/css">
	.st0{fill:#FFFFFF;}
</style>
<path id="YouTube_2_" class="st0" d="M1198.9,1244.1h-93.4l0.4-54.2c0-24.1,19.8-43.8,44-43.8h5.9c24.2,0,44.1,19.7,44.1,43.8
	L1198.9,1244.1z M848.8,1127.9c-23.7,0-43.1,15.9-43.1,35.4V1427c0,19.5,19.4,35.3,43.1,35.3c23.8,0,43.1-15.9,43.1-35.3v-263.7
	C891.9,1143.8,872.5,1127.9,848.8,1127.9z M1417.3,980.4V1482c0,120.3-104.3,218.8-231.9,218.8H231.9C104.3,1700.8,0,1602.3,0,1482
	V980.4c0-120.3,104.3-218.8,231.9-218.8h953.6C1313,761.6,1417.3,860.1,1417.3,980.4z M295.5,1536.5l-0.1-528.4l118.2,0v-78.3
	l-315.1-0.5v77l98.4,0.3v529.9H295.5z M649.8,1086.8h-98.5v282.2c0,40.8,2.5,61.2-0.1,68.4c-8,21.9-44,45.1-58.1,2.4
	c-2.4-7.5-0.3-30.1-0.3-68.8l-0.4-284.1h-98l0.3,279.6c0.1,42.9-1,74.8,0.3,89.4c2.4,25.7,1.5,55.6,25.4,72.6
	c44.3,32,129.3-4.8,150.6-50.4l-0.2,58.3l79.1,0.1V1086.8z M965.1,1409.9l-0.2-234.9c-0.1-89.5-67-143.1-157.9-70.7l0.4-174.6
	l-98.5,0.1l-0.5,602.6l80.9-1.2l7.4-37.5C900.2,1588.8,965.3,1523.7,965.1,1409.9z M1273.5,1378.8l-73.9,0.4c0,2.9-0.1,6.3-0.2,10
	v41.2c0,22.1-18.2,40-40.4,40h-14.5c-22.2,0-40.4-18-40.4-40v-4.6v-45.4v-58.5h169.2v-63.7c0-46.5-1.2-93.1-5-119.7
	c-12.1-84.2-130.3-97.5-189.9-54.4c-18.8,13.5-33,31.5-41.4,55.7c-8.4,24.2-12.5,57.3-12.5,99.3v140
	C1024.5,1611.9,1307.3,1579,1273.5,1378.8z M894.5,618.6c5.1,12.4,13,22.4,23.7,29.9c10.6,7.4,24.1,11.2,40.3,11.2
	c14.2,0,26.8-3.8,37.8-11.8c10.9-7.9,20.2-19.7,27.6-35.4l-1.8,38.7h109.8V184.1h-86.5v363.6c0,19.7-16.2,35.8-36.1,35.8
	c-19.7,0-36-16.1-36-35.8V184.1h-90.2v315.1c0,40.1,0.7,66.9,1.9,80.5C886.3,593.1,889.4,606,894.5,618.6z M561.6,354.7
	c0-44.8,3.8-79.9,11.2-105.1c7.5-25.2,20.9-45.4,40.4-60.6c19.4-15.3,44.3-23,74.5-23c25.4,0,47.2,5,65.4,14.8
	c18.3,9.8,32.4,22.6,42.2,38.3c10,15.8,16.7,32,20.3,48.6c3.7,16.8,5.5,42.2,5.5,76.5v118.1c0,43.3-1.7,75.2-5.1,95.4
	c-3.3,20.3-10.5,39.1-21.6,56.8c-11,17.5-25.1,30.5-42.3,38.8c-17.3,8.4-37.2,12.5-59.6,12.5c-25,0-46.1-3.5-63.5-10.7
	c-17.4-7.2-30.9-18-40.5-32.4c-9.7-14.4-16.5-31.9-20.6-52.4c-4.1-20.4-6.1-51.2-6.1-92.1V354.7z M647.6,540.3
	c0,26.5,19.7,48.1,43.7,48.1c24,0,43.6-21.6,43.6-48.1V291.6c0-26.4-19.6-48-43.6-48c-24,0-43.7,21.6-43.7,48V540.3z M343.6,665.9
	h103.6l0.1-358.3L569.8,0.6H456.5l-65.1,228L325.3,0H213.2l130.3,307.7L343.6,665.9z"/>
</svg>
